<?xml version="1.0" encoding="UTF-8" standalone="no"?>
<!-- Created with Inkscape (http://www.inkscape.org/) -->

<svg
   xmlns:dc="http://purl.org/dc/elements/1.1/"
   xmlns:cc="http://creativecommons.org/ns#"
   xmlns:rdf="http://www.w3.org/1999/02/22-rdf-syntax-ns#"
   xmlns:svg="http://www.w3.org/2000/svg"
   xmlns="http://www.w3.org/2000/svg"
   xmlns:sodipodi="http://sodipodi.sourceforge.net/DTD/sodipodi-0.dtd"
   xmlns:inkscape="http://www.inkscape.org/namespaces/inkscape"
   version="1.1"
   id="svg825"
   width="154"
   height="106"
   viewBox="0 0 154 106"
   sodipodi:docname="OWblocks.svg"
   inkscape:version="0.92.5 (2060ec1f9f, 2020-04-08)">
  <metadata
     id="metadata831">
    <rdf:RDF>
      <cc:Work
         rdf:about="">
        <dc:format>image/svg+xml</dc:format>
        <dc:type
           rdf:resource="http://purl.org/dc/dcmitype/StillImage" />
        <dc:title></dc:title>
      </cc:Work>
    </rdf:RDF>
  </metadata>
  <defs
     id="defs829" />
  <sodipodi:namedview
     pagecolor="#ffffff"
     bordercolor="#666666"
     borderopacity="1"
     objecttolerance="10"
     gridtolerance="10"
     guidetolerance="10"
     inkscape:pageopacity="0"
     inkscape:pageshadow="2"
     inkscape:window-width="1600"
     inkscape:window-height="847"
     id="namedview827"
     showgrid="false"
     inkscape:zoom="6.3962264"
     inkscape:cx="77"
     inkscape:cy="53"
     inkscape:window-x="-8"
     inkscape:window-y="-8"
     inkscape:window-maximized="1"
     inkscape:current-layer="svg825" />
  <path
     style="fill:#000000"
     d="m 28.719764,77.942683 c -8.525,-4.991837 -16.2875,-9.777522 -17.25,-10.634862 -1.5516018,-1.382078 -1.7499998,-3.732184 -1.7499998,-20.729498 0,-18.623244 0.06425,-19.22764 2.2499998,-21.164691 C 14.2174,23.421733 40.714381,7.7629476 43.907863,6.5393366 c 1.101182,-0.421928 6.142528,1.939099 14.5,6.7908244 21.006236,12.194653 17.073202,11.743614 30.897753,3.543338 6.55278,-3.886899 13.747934,-7.9616804 15.989214,-9.0550694 l 4.07506,-1.98798 11.92494,6.9685634 c 6.55872,3.832709 14.17494,8.302753 16.92494,9.93343 l 5,2.964868 0.27001,20.588022 0.27,20.588022 -14.27,8.455549 c -7.84851,4.650549 -15.77729,9.227039 -17.61953,10.169969 l -3.34952,1.71441 -8.15048,-4.76451 C 95.887476,79.828293 88.786916,75.72656 84.591216,73.333811 l -7.628544,-4.350453 -15.786717,9.037815 c -8.682694,4.97081 -16.049848,9.02877 -16.371454,9.01769 -0.321605,-0.0111 -7.559737,-4.10435 -16.084737,-9.09618 z m 13,-12.883686 c 0,-6.6 -0.298905,-12 -0.664234,-12 -0.861717,0 -16.228758,8.660786 -18.835766,10.615741 -2.313187,1.734624 -3.161468,0.984777 9.5,8.397628 4.675,2.73705 8.8375,4.978747 9.25,4.981547 0.4125,0.003 0.75,-5.394916 0.75,-11.994916 z m 17.663063,6.428451 c 5.135315,-3.064352 9.336937,-5.957155 9.336937,-6.428451 0,-0.829741 -17.999884,-12 -19.336937,-12 -0.364685,0 -0.663063,5.4 -0.663063,12 0,6.6 0.298378,11.999996 0.663063,11.999996 0.364684,0 4.864684,-2.507193 10,-5.571545 z m 46.336943,-6.428451 c 0,-6.6 -0.39367,-12 -0.87482,-12 -1.75751,0 -20.196514,11.28601 -19.898704,12.179452 0.38397,1.151895 17.821624,11.642044 19.523524,11.744954 0.93476,0.0565 1.25,-2.950758 1.25,-11.924406 z m 17.17444,6.609573 c 5.12906,-2.964735 9.32556,-5.939043 9.32556,-6.609573 0,-1.513198 -18.32746,-12.224667 -19.58586,-11.446936 -1.03964,0.642536 -1.26904,21.758702 -0.24747,22.780269 0.91598,0.915983 0.17317,1.249913 10.50777,-4.72376 z m -30.434724,-19.409315 13.239734,-7.700258 0.0103,-14.25 c 0.006,-8.918401 -0.36698,-14.25 -0.99803,-14.25 -0.55457,0 -9.667074,5.033652 -20.250004,11.185892 -10.582931,6.152241 -22.039647,12.789741 -25.459369,14.75 -3.419723,1.96026 -6.085507,4.004256 -5.923965,4.542215 0.512886,1.708083 23.075984,14.465736 24.641612,13.932905 0.825,-0.280772 7.457872,-3.975611 14.739722,-8.210754 z M 30.318887,51.350414 41.719764,44.64183 V 30.350414 c 0,-8.111483 -0.400888,-14.291417 -0.927074,-14.291417 -0.509891,0 -6.134891,3.011597 -12.5,6.692438 l -11.572926,6.692438 v 14.307562 c 0,9.731916 0.351506,14.307562 1.099123,14.307562 0.604518,0 6.229518,-3.018863 12.5,-6.708583 z M 137.50379,46.778811 c 0.23023,-8.719592 0.006,-10.863127 -1.18369,-11.319686 -1.77803,-0.682297 -19.76408,9.608615 -19.28829,11.036002 0.51882,1.556465 16.99367,11.465122 18.68796,11.239717 1.20761,-0.160659 1.55536,-2.29627 1.78402,-10.956033 z M 59.162807,34.464484 c 5.255661,-3.076983 9.75588,-5.918335 10.000487,-6.314116 0.417739,-0.675916 -14.887826,-10.210914 -18.69353,-11.64562 -1.606631,-0.60568 -1.75,0.332136 -1.75,11.44726 0,6.658844 0.199641,12.106989 0.443647,12.106989 0.244006,0 4.743734,-2.517531 9.999396,-5.594513 z m 65.806963,-1.136617 c 4.2625,-2.444152 7.75,-4.839807 7.75,-5.323678 0,-1.004681 -18.22707,-11.945192 -19.90088,-11.945192 -1.18434,0 -1.62867,22.137116 -0.46764,23.29815 0.7085,0.708492 1.66599,0.250992 12.61852,-6.02928 z"
     id="path835"
     inkscape:connector-curvature="0" />
</svg>
